<svg width="24" height="24" viewBox="0 0 24 24" fill="none" xmlns="http://www.w3.org/2000/svg">
<path d="M17.2487 24C16.474 24 15.7058 23.863 14.9547 23.5901C11.6455 22.388 8.57396 20.4301 6.07187 17.9281C3.56979 15.4261 1.6119 12.3544 0.409838 9.04529C0.0235567 7.98183 -0.0904387 6.88406 0.0711328 5.78236C0.222486 4.7504 0.62222 3.74858 1.22716 2.88518C1.83478 2.01798 2.64484 1.2967 3.56974 0.799327C4.55604 0.268958 5.63258 0 6.76953 0C7.12314 0 7.42875 0.247068 7.50286 0.592804L8.68003 6.08628C8.73333 6.33504 8.65687 6.59387 8.47702 6.77377L6.46556 8.78519C8.36307 12.5578 11.4421 15.6368 15.2147 17.5343L17.2261 15.5229C17.406 15.343 17.6649 15.2667 17.9136 15.3199L23.4071 16.497C23.7529 16.5711 23.9999 16.8767 23.9999 17.2304C23.9999 18.3673 23.7309 19.4439 23.2005 20.4302C22.7031 21.3551 21.9819 22.1652 21.1147 22.7728C20.2513 23.3777 19.2495 23.7774 18.2175 23.9288C17.8941 23.9763 17.5708 24 17.2487 24ZM6.1703 1.53275C4.6706 1.69831 3.3395 2.48437 2.45557 3.74596C1.46158 5.16457 1.22979 6.90942 1.81964 8.5332C4.13067 14.8951 9.10489 19.8693 15.4668 22.1803C17.0905 22.7702 18.8354 22.5385 20.254 21.5444C21.5156 20.6605 22.3017 19.3294 22.4672 17.8297L17.9983 16.8721L15.8976 18.9727C15.6741 19.1963 15.3345 19.2556 15.0484 19.1212C10.5866 17.0251 6.97493 13.4134 4.87876 8.95154C4.74438 8.66547 4.80372 8.32583 5.02726 8.10234L7.12792 6.00168L6.1703 1.53275Z" fill="#FF5B59"/>
</svg>
