<svg xmlns="http://www.w3.org/2000/svg" id="Слой_1" data-name="Слой 1" viewBox="61.97 154.81 442.99 234.5"><defs><style>.cls-1{fill:#B81907;}.cls-2{fill:#B81907;}.cls-3{fill:#B81907;}</style></defs><polygon class="cls-1" points="504.96 389.31 300.76 267.29 451.98 177.1 367.65 206.65 283.46 256.96 199.28 206.65 114.95 177.1 266.17 267.29 61.97 389.31 140.57 362.83 283.46 277.61 426.36 362.83 504.96 389.31"/><path class="cls-1" d="M345.5,345V330l-62.6-37.69-63.44,37.78v15l20.07-12h86.25Zm-84.62-24.62,22-13.11,21.77,13.11Z"/><polygon class="cls-1" points="359.97 196.43 284.51 196.43 207.62 196.43 228.38 209.18 271.77 209.18 284.51 243 297.26 209.18 338.6 209.18 361.41 196.43 359.97 196.43"/><polygon class="cls-1" points="210.48 365.74 210.48 348.29 130.35 267.21 166.26 222.88 155.47 216.44 115.97 264.85 115.97 192.88 103.23 185.28 103.23 349.58 115.97 341.98 115.97 284.98 122.01 277.52 210.48 365.74"/><path class="cls-1" d="M453.27,212v37.76L354.55,350V368l69.31-70h29.41v44.9L466,350.6V198.45Zm-16.8,73.21,16.8-17v17Z"/><polygon class="cls-1" points="381.42 284.23 381.42 233.47 368.67 241.87 357.12 248.45 342.16 256.81 342.16 277.38 354.91 285.16 356.22 263.46 368.67 255.94 368.67 292 382.46 302.66 435.68 248.94 435.68 229.53 381.42 284.23"/><path class="cls-1" d="M228.62,274.8,241.91,268l-64-38.29-8.15,11.06v47.05l12.74,12.88V287.3l33.36-19.9Zm-46.17-2.49V248.12L203.07,260Z"/><path class="cls-2" d="M280.68,164.54c1.21,1.18,1.81,3.77,1.81,6.14v7.45l-4.81,0L275,166.66l-3.08,11.44-4.9,0V155l4.9,3.54v5.91a6.16,6.16,0,0,1,2.15-1.3,7.92,7.92,0,0,1,2.65-.44A4.86,4.86,0,0,1,280.68,164.54Z"/><path class="cls-2" d="M390.36,159.25,382.19,179a10.64,10.64,0,0,1-3.5,4.91,8,8,0,0,1-4.83,1.41c-5.64,0-6.45-7.83-6.45-7.83.38.35,3.37,3.62,5.59,3.85,2.6.26,3.17-1.62,3.2-3.07a3.37,3.37,0,0,0-.33-1.25l-8-17.73,5.78,2.18,5.68,9.39,4.4-9.27Z"/><rect class="cls-2" x="210.13" y="162.2" width="5.6" height="15.96"/><polygon points="210.15 160.65 215.78 160.65 210.15 155.01 210.15 160.65"/><path class="cls-2" d="M183.56,172.83a3.58,3.58,0,0,1-1.37-1.9h10.66a9.24,9.24,0,0,0-1-5.81,7.51,7.51,0,0,0-3.08-2.86,5.92,5.92,0,0,0-3.39-1,9.59,9.59,0,0,0-4.51,1.06,8.06,8.06,0,0,0,.18,14.38,9.75,9.75,0,0,0,8.5.17c2.7-1.52,3.66-5,3.66-5C192.6,172.41,186.63,175.26,183.56,172.83Z"/><polygon class="cls-3" points="188.51 164.74 181.23 164.83 184.91 168.43 188.51 164.74"/><path class="cls-2" d="M245.37,158.58l.21,5.51a5.73,5.73,0,0,0-5-2.21,8.21,8.21,0,0,0-3.92,1,7.25,7.25,0,0,0-2.85,2.7,8.21,8.21,0,0,0,0,8.07,7.21,7.21,0,0,0,2.85,2.71,8.21,8.21,0,0,0,3.92,1,5.93,5.93,0,0,0,4.74-1.88v.53c0,1.27.18,2.12-.24,3-.8,1.63-2.16,2.36-4.59,2.25-2.65-.11-7.07-3.16-7.72-3.69l1.14,1.84c3.33,5.1,6.81,6,8.38,6,3,0,7.74-1.62,7.74-9.77v-13Z"/><polygon class="cls-3" points="241.38 173.84 241.49 164.11 236.57 168.92 241.38 173.84"/><path class="cls-2" d="M309.47,173.34a3,3,0,0,1-1.7.5,1.59,1.59,0,0,1-1.23-.49,1.89,1.89,0,0,1-.45-1.34v-5.3l5.07-2-5.07-2.16v-4.15h-5.6v4.15l-5.07,2,5.07,2.16v5.36a5.88,5.88,0,0,0,1.68,4.57,6.88,6.88,0,0,0,4.8,1.53c2.6,0,5.69-3.1,6.16-3.39Z"/><polygon class="cls-3" points="343.86 176.81 343.98 166.09 338.56 171.39 343.86 176.81"/><path class="cls-2" d="M343.59,164.81l.12-10-5.15,4.21V178h4.94v-1.88C344.74,177.55,344.87,163.51,343.59,164.81Z"/><circle class="cls-2" cx="347.92" cy="170.59" r="7.74"/><polygon class="cls-3" points="346.57 165.32 346.79 175.86 351.95 170.48 346.57 165.32"/></svg>