<svg width="24" height="17" viewBox="0 0 24 17" fill="none" xmlns="http://www.w3.org/2000/svg">
<path d="M21.8906 0H2.10938C0.946266 0 0 0.946266 0 2.10938V14.3335C0 15.4966 0.946266 16.4429 2.10938 16.4429H21.8906C23.0537 16.4429 24 15.4966 24 14.3335V2.10938C24 0.946266 23.0537 0 21.8906 0ZM21.6153 1.40625L21.3338 1.64067L12.8369 8.71603C12.3519 9.11981 11.648 9.11981 11.1631 8.71603L2.6662 1.64067L2.38467 1.40625H21.6153ZM1.40625 2.42147L8.32931 8.1863L1.40625 12.7938V2.42147ZM21.8906 15.0367H2.10938C1.76962 15.0367 1.48547 14.7944 1.42036 14.4736L9.45684 9.12516L10.2633 9.79669C10.7664 10.2157 11.3833 10.4251 12 10.4251C12.6168 10.4251 13.2336 10.2157 13.7368 9.79669L14.5433 9.12516L22.5797 14.4736C22.5145 14.7945 22.2304 15.0367 21.8906 15.0367ZM22.5938 12.7938L15.6707 8.18634L22.5938 2.42147V12.7938Z" fill="#FF5B59"/>
</svg>
